<mxfile host="65bd71144e">
    <diagram id="4mPVVl-2Y0Cvrb-lRIT4" name="Powers">
        <mxGraphModel dx="1581" dy="2299" grid="1" gridSize="10" guides="1" tooltips="1" connect="1" arrows="1" fold="1" page="1" pageScale="1" pageWidth="850" pageHeight="1100" math="0" shadow="0">
            <root>
                <mxCell id="0"/>
                <mxCell id="1" parent="0"/>
                <mxCell id="4" value="&lt;p style=&quot;text-align: justify; line-height: 40%;&quot;&gt;&lt;/p&gt;&lt;p&gt;&lt;/p&gt;" style="rounded=1;whiteSpace=wrap;html=1;align=left;" parent="1" vertex="1">
                    <mxGeometry x="20" width="170" height="480" as="geometry"/>
                </mxCell>
                <mxCell id="5" value="&lt;h1 style=&quot;line-height: 20%;&quot;&gt;&lt;font style=&quot;font-size: 16px;&quot;&gt;IPower&lt;/font&gt;&lt;/h1&gt;&lt;div style=&quot;line-height: 100%;&quot;&gt;&lt;font style=&quot;font-size: 16px;&quot;&gt;&lt;hr&gt;&lt;/font&gt;&lt;/div&gt;&lt;p style=&quot;font-size: 12px;&quot;&gt;Enum: PowerType powerType&amp;nbsp;&lt;span style=&quot;background-color: initial;&quot;&gt;{ welfare, illness}&lt;/span&gt;&lt;/p&gt;&lt;p style=&quot;font-size: 12px;&quot;&gt;&lt;span style=&quot;background-color: initial;&quot;&gt;Enum: Rarity rarity { Common, Rare, Epic, Leggendary}&lt;/span&gt;&lt;/p&gt;&lt;p style=&quot;&quot;&gt;&lt;span style=&quot;font-size: 12px; background-color: initial;&quot;&gt;Enum: Trigger trigger{ instant, specificTrigger, beginRoom, endRoom, beginFight, endFight,&amp;nbsp;&lt;/span&gt;&lt;span style=&quot;background-color: initial;&quot;&gt;&lt;span style=&quot;font-size: 12px;&quot;&gt;exploration}&lt;/span&gt;&lt;/span&gt;&lt;/p&gt;&lt;p style=&quot;&quot;&gt;&lt;span style=&quot;background-color: initial;&quot;&gt;&lt;span style=&quot;font-size: 12px;&quot;&gt;Action: OnPowerTaken&lt;/span&gt;&lt;/span&gt;&lt;/p&gt;&lt;hr style=&quot;font-size: 12px;&quot;&gt;&lt;font style=&quot;font-size: 12px;&quot;&gt;void Start();&lt;br&gt;void PowerTaken();&lt;br&gt;&lt;div style=&quot;color: rgb(204, 204, 204); background-color: rgb(31, 31, 31); font-family: Consolas, &amp;quot;Courier New&amp;quot;, monospace; font-size: 14px; line-height: 19px;&quot;&gt;&lt;span style=&quot;color: #dcdcaa;&quot;&gt;virtual void InitChangePowerType&lt;/span&gt;()&lt;/div&gt;&lt;div style=&quot;color: rgb(204, 204, 204); background-color: rgb(31, 31, 31); font-family: Consolas, &amp;quot;Courier New&amp;quot;, monospace; font-size: 14px; line-height: 19px;&quot;&gt;void SetTrigger&lt;/div&gt;&lt;hr&gt;&lt;br&gt;&lt;/font&gt;" style="text;html=1;strokeColor=none;fillColor=none;spacing=5;spacingTop=-20;whiteSpace=wrap;overflow=hidden;rounded=1;fontSize=18;" parent="1" vertex="1">
                    <mxGeometry x="20" width="170" height="490" as="geometry"/>
                </mxCell>
                <mxCell id="6" value="&lt;span style=&quot;font-size: 16px;&quot;&gt;&lt;b&gt;BarsManager&lt;/b&gt;&lt;/span&gt;&lt;br&gt;&lt;hr&gt;int: welfareBarLevel&amp;nbsp; = 0-5&lt;br&gt;int:&amp;nbsp;illnessBarLevel = 0-5&lt;br&gt;&lt;hr&gt;void SetBarsValues()" style="rounded=1;whiteSpace=wrap;html=1;verticalAlign=top;align=left;" parent="1" vertex="1">
                    <mxGeometry x="20" y="520" width="140" height="300" as="geometry"/>
                </mxCell>
                <mxCell id="8" value="&lt;p style=&quot;text-align: justify; line-height: 40%;&quot;&gt;&lt;/p&gt;&lt;p&gt;&lt;/p&gt;" style="rounded=1;whiteSpace=wrap;html=1;align=left;" parent="1" vertex="1">
                    <mxGeometry x="200" y="520" width="120" height="330" as="geometry"/>
                </mxCell>
                <mxCell id="9" value="&lt;h1 style=&quot;line-height: 20%;&quot;&gt;&lt;font style=&quot;font-size: 16px;&quot;&gt;Powers Drop Pool&lt;/font&gt;&lt;/h1&gt;&lt;div style=&quot;line-height: 100%;&quot;&gt;&lt;font style=&quot;font-size: 16px;&quot;&gt;&lt;hr&gt;&lt;/font&gt;&lt;/div&gt;&lt;p style=&quot;font-size: 12px;&quot;&gt;int actualRarity = |welfareBarLevel - illnessBarLevel|&lt;/p&gt;&lt;hr style=&quot;font-size: 12px;&quot;&gt;" style="text;html=1;strokeColor=none;fillColor=none;spacing=5;spacingTop=-20;whiteSpace=wrap;overflow=hidden;rounded=1;fontSize=18;" parent="1" vertex="1">
                    <mxGeometry x="200" y="520" width="120" height="330" as="geometry"/>
                </mxCell>
                <mxCell id="12" value="" style="triangle;whiteSpace=wrap;html=1;" vertex="1" parent="1">
                    <mxGeometry x="330" y="60" width="60" height="80" as="geometry"/>
                </mxCell>
            </root>
        </mxGraphModel>
    </diagram>
</mxfile>